
<?xml version="1.0" encoding="UTF-8"?>
<svg width="38px" height="38px" viewBox="0 0 38 38" version="1.1" xmlns="http://www.w3.org/2000/svg" xmlns:xlink="http://www.w3.org/1999/xlink">
    <!-- Generator: Sketch 63 (92445) - https://sketch.com -->
    <title>facebook</title>
    <desc>Created with Sketch.</desc>
    <g id="Symbols" stroke="none" stroke-width="1" fill="none" fill-rule="evenodd">
        <g id="footer/desktop" transform="translate(-670.000000, -418.000000)" fill="#D1D1D1" fill-rule="nonzero">
            <g id="social-media" transform="translate(607.000000, 418.000000)">
                <g id="facebook" transform="translate(63.000000, 0.000000)">
                    <path d="M0,19 C0,8.50658924 8.50658924,0 19,0 C29.4934108,0 38,8.50658924 38,19 C38,29.4934108 29.4934108,38 19,38 C8.50658924,38 0,29.4934108 0,19 Z M20.9803978,30.1715857 L20.9803978,19.8345826 L23.8338627,19.8345826 L24.2120084,16.2723941 L20.9803978,16.2723941 L20.9852458,14.4894844 C20.9852458,13.5604108 21.0735202,13.062592 22.4079382,13.062592 L24.1918083,13.062592 L24.1918083,9.5 L21.3379394,9.5 C17.9099839,9.5 16.7034324,11.2280447 16.7034324,14.1340724 L16.7034324,16.2727975 L14.5666667,16.2727975 L14.5666667,19.834986 L16.7034324,19.834986 L16.7034324,30.1715857 L20.9803978,30.1715857 Z" id="Combined-Shape"></path>
                </g>
            </g>
        </g>
    </g>
</svg>