
<?xml version="1.0" encoding="UTF-8"?>
<svg width="38px" height="38px" viewBox="0 0 38 38" version="1.1" xmlns="http://www.w3.org/2000/svg" xmlns:xlink="http://www.w3.org/1999/xlink">
    <!-- Generator: Sketch 63 (92445) - https://sketch.com -->
    <title>instagram</title>
    <desc>Created with Sketch.</desc>
    <g id="Symbols" stroke="none" stroke-width="1" fill="none" fill-rule="evenodd">
        <g id="footer/desktop" transform="translate(-607.000000, -418.000000)" fill="#D1D1D1" fill-rule="nonzero">
            <g id="social-media" transform="translate(607.000000, 418.000000)">
                <g id="instagram">
                    <path d="M0,19 C0,8.50658924 8.50658924,0 19,0 C29.4934108,0 38,8.50658924 38,19 C38,29.4934108 29.4934108,38 19,38 C8.50658924,38 0,29.4934108 0,19 Z M19.00095,8.86666667 C16.2488769,8.86666667 15.9034955,8.87870013 14.8225954,8.92788954 C13.7438064,8.97729005 13.0074431,9.14808073 12.3631253,9.39867224 C11.6966406,9.65749714 11.1312791,10.0037229 10.5680288,10.5671844 C10.0043563,11.1304347 9.65813048,11.6957961 9.39846109,12.3620697 C9.14723625,13.0065987 8.97623447,13.743173 8.92767839,14.8215398 C8.87933346,15.9024399 8.86666667,16.2480325 8.86666667,19.0001056 C8.86666667,21.7521787 8.87891122,22.0965045 8.92788954,23.1774046 C8.97750114,24.2561936 9.14829182,24.9925569 9.39867224,25.6368747 C9.65770823,26.3033594 10.0039341,26.8687209 10.5673955,27.4319712 C11.1304347,27.9956437 11.6957961,28.342714 12.3618587,28.6015389 C13.0065987,28.8521304 13.743173,29.0229211 14.8217509,29.0723216 C15.9026511,29.121511 16.2478213,29.1335444 18.9996833,29.1335444 C21.7519675,29.1335444 22.0962934,29.121511 23.1771935,29.0723216 C24.2559825,29.0229211 24.9931902,28.8521304 25.6379303,28.6015389 C26.3042039,28.342714 26.8687209,27.9956437 27.43176,27.4319712 C27.9954326,26.8687209 28.3416584,26.3033594 28.6013278,25.6370858 C28.8504415,24.9925569 29.0214433,24.2559825 29.0721105,23.1776158 C29.1206665,22.0967156 29.1333333,21.7521787 29.1333333,19.0001056 C29.1333333,16.2480325 29.1206665,15.9026511 29.0721105,14.8217509 C29.0214433,13.7429619 28.8504415,13.0065987 28.6013278,12.3622808 C28.3416584,11.6957961 27.9954326,11.1304347 27.43176,10.5671844 C26.8680875,10.0035118 26.304415,9.65728599 25.6372969,9.39867224 C24.9912902,9.14808073 24.2545047,8.97729005 23.1757157,8.92788954 C22.0948156,8.87870013 21.7507009,8.86666667 18.9977833,8.86666667 L19.00095,8.86666667 Z" id="Combined-Shape"></path>
                    <path d="M18.0918961,10.6927968 C18.3616989,10.6923746 18.6627465,10.6927968 19.00095,10.6927968 C21.7065782,10.6927968 22.0272593,10.702508 23.0957038,10.7510641 C24.083714,10.7962423 24.6199419,10.9613329 24.9771456,11.1000344 C25.4500394,11.283703 25.7871873,11.5032608 26.1416466,11.8579312 C26.496317,12.2126015 26.7158748,12.5503828 26.8999656,13.0232767 C27.0386671,13.3800581 27.2039688,13.916286 27.2489359,14.9042962 C27.297492,15.9725295 27.3080477,16.2934218 27.3080477,18.9977833 C27.3080477,21.7021448 27.297492,22.0230371 27.2489359,23.0912704 C27.2037577,24.0792807 27.0386671,24.6155085 26.8999656,24.97229 C26.716297,25.4451838 26.496317,25.7819095 26.1416466,26.1363688 C25.7869763,26.4910391 25.4502505,26.710597 24.9771456,26.8942655 C24.6203641,27.0336003 24.083714,27.1982687 23.0957038,27.243447 C22.0274705,27.2920031 21.7065782,27.3025587 19.00095,27.3025587 C16.2951107,27.3025587 15.9744296,27.2920031 14.9061962,27.243447 C13.918186,27.1978465 13.3819581,27.0327559 13.0245433,26.8940544 C12.5516495,26.7103859 12.2138682,26.490828 11.8591978,26.1361577 C11.5045275,25.7814873 11.2849696,25.4445505 11.1008788,24.9714455 C10.9621774,24.614664 10.7968757,24.0784362 10.7519085,23.090426 C10.7033525,22.0221926 10.6936412,21.7013004 10.6936412,18.9952499 C10.6936412,16.2891995 10.7033525,15.9699962 10.7519085,14.9017629 C10.7970868,13.9137526 10.9621774,13.3775247 11.1008788,13.0203211 C11.2845474,12.5474272 11.5045275,12.2096459 11.8591978,11.8549756 C12.2138682,11.5003052 12.5516495,11.2807474 13.0245433,11.0966566 C13.3817471,10.9573218 13.918186,10.7926534 14.9061962,10.7472641 C15.841006,10.7050414 16.2032764,10.6923746 18.0918961,10.6902634 L18.0918961,10.6927968 Z M24.4100952,12.3753699 C23.7387549,12.3753699 23.1940825,12.9194089 23.1940825,13.5909603 C23.1940825,14.2623007 23.7387549,14.806973 24.4100952,14.806973 C25.0814356,14.806973 25.6261079,14.2623007 25.6261079,13.5909603 C25.6261079,12.91962 25.0814356,12.3749476 24.4100952,12.3749476 L24.4100952,12.3753699 Z M19.00095,13.7961625 C16.1270645,13.7961625 13.7970069,16.12622 13.7970069,19.0001056 C13.7970069,21.873991 16.1270645,24.2029931 19.00095,24.2029931 C21.8748355,24.2029931 24.2040486,21.873991 24.2040486,19.0001056 C24.2040486,16.12622 21.8746244,13.7961625 19.0007389,13.7961625 L19.00095,13.7961625 Z" id="Combined-Shape"></path>
                    <path d="M19.00095,15.6222926 C20.8663472,15.6222926 22.378763,17.1344972 22.378763,19.0001056 C22.378763,20.8655028 20.8663472,22.3779185 19.00095,22.3779185 C17.1353417,22.3779185 15.623137,20.8655028 15.623137,19.0001056 C15.623137,17.1344972 17.1353417,15.6222926 19.00095,15.6222926 L19.00095,15.6222926 Z" id="Shape"></path>
                </g>
            </g>
        </g>
    </g>
</svg>