
<?xml version="1.0" encoding="UTF-8"?>
<svg width="38px" height="38px" viewBox="0 0 38 38" version="1.1" xmlns="http://www.w3.org/2000/svg" xmlns:xlink="http://www.w3.org/1999/xlink">
    <!-- Generator: Sketch 63 (92445) - https://sketch.com -->
    <title>linkedin</title>
    <desc>Created with Sketch.</desc>
    <g id="Symbols" stroke="none" stroke-width="1" fill="none" fill-rule="evenodd">
        <g id="footer/desktop" transform="translate(-796.000000, -418.000000)" fill="#D1D1D1" fill-rule="nonzero">
            <g id="social-media" transform="translate(607.000000, 418.000000)">
                <g id="linkedin" transform="translate(189.000000, 0.000000)">
                    <path d="M0,19 C0,8.50658924 8.50658924,0 19,0 C29.4934108,0 38,8.50658924 38,19 C38,29.4934108 29.4934108,38 19,38 C8.50658924,38 0,29.4934108 0,19 Z M13.4270957,15.7366299 L9.12128022,15.7366299 L9.12128022,28.6738181 L13.4270957,28.6738181 L13.4270957,15.7366299 Z M13.7106876,11.7346357 C13.6827411,10.4661526 12.7756427,9.5 11.3026503,9.5 C9.82965798,9.5 8.86666667,10.4661526 8.86666667,11.7346357 C8.86666667,12.9768441 9.8011956,13.9708169 11.2467575,13.9708169 L11.274274,13.9708169 C12.7756427,13.9708169 13.7106876,12.9768441 13.7106876,11.7346357 Z M28.9555136,21.2560298 C28.9555136,17.2822851 26.8313262,15.4328397 23.9979011,15.4328397 C21.7117963,15.4328397 20.6882687,16.6885289 20.1167855,17.5694175 L20.1167855,15.7369734 L15.8104541,15.7369734 C15.8672069,16.9509322 15.8104541,28.6741616 15.8104541,28.6741616 L20.1167855,28.6741616 L20.1167855,21.4489683 C20.1167855,21.0623184 20.144732,20.676613 20.2585815,20.3997843 C20.5697758,19.6273431 21.2783256,18.8275969 22.467898,18.8275969 C24.0266215,18.8275969 24.6496981,20.0139072 24.6496981,21.7524151 L24.6496981,28.6738181 L28.9553416,28.6738181 L28.9555136,21.2560298 Z" id="Combined-Shape"></path>
                </g>
            </g>
        </g>
    </g>
</svg>