<!--<svg xmlns="http://www.w3.org/2000/svg" viewBox="0 0 384 512">
!Font Awesome Free 6.6.0 by @fontawesome - https://fontawesome.com License - https://fontawesome.com/license/free 
Copyright 2024 Fonticons, Inc.
<path d="M42.9 240.3l99.6 48.6c19.2 9.4 16.2 37.5-4.5 42.7L30.5 358.5a22.8 22.8 0 0 1 -28.2-19.6 197.2 197.2 0 0 1 9-85.3 22.8 22.8 0 0 1 31.6-13.2zm44 239.3a199.5 199.5 0 0 0 79.4 32.1A22.8 22.8 0 0 0 192.9 490l3.9-110.8c.7-21.3-25.5-31.9-39.8-16.1l-74.2 82.4a22.8 22.8 0 0 0 4.1 34.1zm145.3-109.9l58.8 94a22.9 22.9 0 0 0 34 5.5 198.4 198.4 0 0 0 52.7-67.6A23 23 0 0 0 364.2 370l-105.4-34.3c-20.3-6.5-37.8 15.8-26.5 33.9zm148.3-132.2a197.4 197.4 0 0 0 -50.4-69.3 22.9 22.9 0 0 0 -34 4.4l-62 91.9c-11.9 17.7 4.7 40.6 25.2 34.7L366 268.6a23 23 0 0 0 14.6-31.2zM62.1 30.2a22.9 22.9 0 0 0 -9.9 32l104.1 180.4c11.7 20.2 42.6 11.9 42.6-11.4V22.9a22.7 22.7 0 0 0 -24.5-22.8 320.4 320.4 0 0 0 -112.3 30.1z"/>
</svg>
-->

<?xml version="1.0" encoding="UTF-8"?>
<svg width="38px" height="38px" viewBox="0 0 38 38" version="1.1" xmlns="http://www.w3.org/2000/svg" xmlns:xlink="http://www.w3.org/1999/xlink">
    <!-- Generator: Sketch 63 (92445) - https://sketch.com -->
    <title>facebook</title>
    <desc>Created with Sketch.</desc>
    <g id="Symbols" stroke="none" stroke-width="1" fill="none" fill-rule="evenodd">
        <g id="footer/desktop" transform="translate(-670.000000, -418.000000)" fill="#D1D1D1" fill-rule="nonzero">
            <g id="social-media" transform="translate(607.000000, 418.000000)">
                <g id="yelp" transform="translate(63.000000, 0.000000)">
                    <!-- <path d="M0,19 C0,8.50658924 8.50658924,0 19,0 C29.4934108,0 38,8.50658924 38,19 C38,29.4934108 29.4934108,38 19,38 C8.50658924,38 0,29.4934108 0,19 Z M20.9803978,30.1715857 L20.9803978,19.8345826 L23.8338627,19.8345826 L24.2120084,16.2723941 L20.9803978,16.2723941 L20.9852458,14.4894844 C20.9852458,13.5604108 21.0735202,13.062592 22.4079382,13.062592 L24.1918083,13.062592 L24.1918083,9.5 L21.3379394,9.5 C17.9099839,9.5 16.7034324,11.2280447 16.7034324,14.1340724 L16.7034324,16.2727975 L14.5666667,16.2727975 L14.5666667,19.834986 L16.7034324,19.834986 L16.7034324,30.1715857 L20.9803978,30.1715857 Z" id="Combined-Shape"></path>-->
                     <path d="M42.9 240.3l99.6 48.6c19.2 9.4 16.2 37.5-4.5 42.7L30.5 358.5a22.8 22.8 0 0 1 -28.2-19.6 197.2 197.2 0 0 1 9-85.3 22.8 22.8 0 0 1 31.6-13.2zm44 239.3a199.5 199.5 0 0 0 79.4 32.1A22.8 22.8 0 0 0 192.9 490l3.9-110.8c.7-21.3-25.5-31.9-39.8-16.1l-74.2 82.4a22.8 22.8 0 0 0 4.1 34.1zm145.3-109.9l58.8 94a22.9 22.9 0 0 0 34 5.5 198.4 198.4 0 0 0 52.7-67.6A23 23 0 0 0 364.2 370l-105.4-34.3c-20.3-6.5-37.8 15.8-26.5 33.9zm148.3-132.2a197.4 197.4 0 0 0 -50.4-69.3 22.9 22.9 0 0 0 -34 4.4l-62 91.9c-11.9 17.7 4.7 40.6 25.2 34.7L366 268.6a23 23 0 0 0 14.6-31.2zM62.1 30.2a22.9 22.9 0 0 0 -9.9 32l104.1 180.4c11.7 20.2 42.6 11.9 42.6-11.4V22.9a22.7 22.7 0 0 0 -24.5-22.8 320.4 320.4 0 0 0 -112.3 30.1z"/>
                </g>
            </g>
        </g>
    </g>
</svg>